#N canvas 0 0 450 300 10;
#X obj 50 50 unpack float float float float;
#X obj 50 100 sel 1;
#X obj 50 150 route zero one;
#X obj 150 150 outlet;
#X obj 250 150 outlet;
#X obj 350 150 outlet;
#X obj 100 100 route 0 1;
#X connect 0 0 1 0;
#X connect 1 0 2 0;
#X connect 2 0 3 0;
#X connect 1 1 4 0;
#X connect 4 0 5 0;
#X connect 4 1 6 0;
#X connect 4 2 7 0;
